<?xml version="1.0" standalone="no"?>
<!DOCTYPE svg PUBLIC "-//W3C//DTD SVG 20010904//EN"
 "http://www.w3.org/TR/2001/REC-SVG-20010904/DTD/svg10.dtd">
<svg version="1.0" xmlns="http://www.w3.org/2000/svg"
 width="1000.000000pt" height="1000.000000pt" viewBox="0 0 1000.000000 1000.000000"
 preserveAspectRatio="xMidYMid meet">
<metadata>
Created by potrace 1.11, written by Peter Selinger 2001-2013
</metadata>
<g transform="translate(0.000000,1000.000000) scale(0.100000,-0.100000)"
fill="#000000" stroke="none">
<path d="M1083 9499 c-351 -32 -627 -296 -689 -659 -3 -19 -6 -973 -5 -2120 0
-2073 0 -2085 20 -2165 77 -299 314 -521 614 -576 43 -8 374 -11 1099 -11
l1037 -1 -11 -21 c-6 -12 -100 -185 -208 -386 -108 -201 -216 -401 -240 -445
-60 -113 -113 -209 -117 -215 -2 -2 -79 -5 -171 -5 -183 -2 -244 -12 -337 -56
-120 -57 -206 -149 -263 -281 -29 -67 -35 -93 -38 -171 -4 -110 7 -169 51
-262 54 -117 163 -222 280 -270 99 -41 104 -41 1836 -41 l1666 1 17 -47 c11
-31 29 -57 53 -75 36 -28 39 -28 192 -30 86 -1 159 -2 162 -3 4 0 12 -14 19
-31 13 -30 13 -30 -97 -142 -82 -82 -113 -121 -119 -147 -9 -43 -6 -77 11
-110 8 -14 173 -183 367 -376 308 -306 358 -353 390 -358 72 -13 105 5 222
123 l109 109 32 -15 32 -15 0 -152 c0 -120 3 -158 16 -183 19 -36 61 -69 102
-79 16 -4 245 -7 510 -7 533 0 526 -1 576 66 23 30 24 41 27 195 l4 162 27 15
c28 14 29 13 139 -95 88 -86 119 -111 153 -120 88 -24 90 -22 467 353 189 188
350 355 359 371 45 85 20 147 -111 276 -53 52 -96 102 -96 110 0 9 6 24 13 34
12 16 31 18 158 18 158 1 185 6 225 46 50 50 47 -3 45 818 -1 254 -2 262 -24
294 -43 64 -71 73 -241 74 l-151 1 -17 30 -16 30 114 116 c63 64 115 122 115
130 1 8 3 28 5 44 8 66 -9 86 -372 449 -291 291 -361 356 -391 363 l-36 8 65
43 c148 95 263 259 314 447 18 68 19 140 19 2165 0 1152 -4 2118 -8 2145 -49
306 -302 564 -614 625 -49 10 -861 13 -3640 14 -1968 0 -3611 -2 -3650 -5z
m7250 -319 c165 -39 303 -177 341 -344 11 -46 14 -377 14 -1691 0 -899 -3
-1635 -7 -1635 -110 -4 -7975 1 -7979 4 -3 3 -5 740 -5 1638 1 1187 4 1646 12
1682 44 186 204 333 386 353 28 3 51 6 52 7 1 0 1606 0 3568 -1 2753 -1 3578
-4 3618 -13z m353 -4259 c-3 -261 -4 -279 -26 -336 -55 -143 -157 -240 -300
-286 l-65 -21 -3590 0 c-1975 0 -3606 3 -3625 6 -99 18 -212 84 -275 160 -45
55 -92 159 -101 221 -5 38 -9 420 -5 516 1 14 357 16 3996 16 l3994 0 -3 -276z
m-301 -1001 c-90 -90 -91 -90 -123 -79 -31 11 -32 13 -32 69 l0 57 63 6 c75 7
123 16 151 27 11 5 23 9 26 9 3 1 -36 -40 -85 -89z m-2421 -74 c46 -66 100
-145 120 -175 l37 -55 -135 -135 c-137 -138 -156 -166 -156 -226 0 -57 15 -80
125 -191 106 -109 115 -125 83 -159 -9 -10 -3098 -15 -3098 -6 0 4 154 292
270 506 15 28 59 109 98 180 38 72 93 173 121 225 29 52 59 109 68 127 l16 31
1184 0 1183 0 84 -122z m446 59 l-64 -64 -34 47 c-61 85 -65 79 55 80 l106 0
-63 -63z m586 6 c-1 -51 -3 -57 -30 -70 -28 -13 -29 -12 -99 57 l-70 70 100 0
101 -1 -2 -56z m924 -71 c0 -71 4 -140 9 -153 17 -44 55 -74 128 -100 39 -14
105 -41 145 -60 141 -66 164 -61 294 65 83 81 96 89 110 77 10 -8 107 -104
216 -213 l198 -199 -89 -92 c-130 -132 -135 -155 -67 -304 24 -53 51 -119 60
-146 19 -58 55 -102 100 -119 19 -8 78 -12 154 -12 l122 1 1 -30 c1 -39 1
-522 0 -556 l-1 -27 -129 0 c-176 -1 -208 -19 -251 -141 -12 -36 -40 -103 -61
-149 -62 -134 -55 -160 76 -292 l89 -91 -216 -216 -217 -217 -80 82 c-138 141
-166 147 -319 78 -53 -24 -115 -49 -137 -56 -55 -17 -104 -56 -121 -96 -9 -23
-14 -74 -14 -159 l0 -125 -287 -1 c-271 -1 -314 -1 -320 5 -2 2 -4 64 -6 138
-4 177 -12 189 -154 243 -54 21 -124 51 -155 66 -65 33 -114 37 -161 13 -18
-9 -70 -55 -116 -101 l-84 -84 -25 23 c-43 40 -376 374 -391 392 -13 15 -6 26
72 104 131 132 136 160 64 319 -24 54 -50 116 -57 138 -33 105 -74 126 -249
128 l-128 1 0 306 0 306 111 -1 c61 -1 129 2 151 6 51 9 97 58 120 130 10 30
35 92 57 139 67 145 61 174 -68 304 l-92 93 217 216 216 217 95 -95 c124 -125
158 -133 292 -71 67 31 98 44 186 76 32 12 91 70 94 93 2 18 6 134 7 208 l1
67 305 0 305 0 0 -128z m-2309 -1300 c0 -44 0 -296 -1 -375 l0 -40 -1672 0
-1673 0 -55 27 c-84 42 -130 119 -125 211 6 114 77 196 187 215 22 4 782 7
1689 7 l1649 0 1 -45z"/>
<path d="M4315 7559 c-377 -753 -685 -1373 -685 -1377 0 -4 62 -37 138 -74
l137 -67 683 1366 c376 752 684 1371 685 1377 2 9 -244 144 -265 145 -4 1
-316 -616 -693 -1370z"/>
<path d="M2652 7986 c-302 -303 -555 -561 -561 -573 -14 -28 -13 -91 2 -126 7
-15 258 -274 559 -575 l548 -547 110 110 110 110 -482 482 -483 483 483 483
483 483 -109 111 -110 110 -550 -551z"/>
<path d="M5612 8427 c-56 -56 -102 -105 -102 -109 0 -3 216 -223 481 -487
l481 -481 -481 -481 c-265 -265 -481 -484 -481 -487 0 -4 48 -55 107 -114
l107 -107 552 552 c582 583 577 577 568 657 -2 19 -12 45 -21 59 -21 33 -1088
1101 -1100 1101 -4 0 -54 -46 -111 -103z"/>
<path d="M6383 6275 l0 -155 153 0 154 0 1 40 c0 22 0 85 0 140 0 55 0 107 0
115 -1 13 -25 15 -155 15 l-153 0 0 -155z"/>
<path d="M6997 6283 c1 -82 2 -151 2 -155 1 -5 71 -8 156 -8 l154 0 0 155 0
155 -157 0 -157 0 2 -147z"/>
<path d="M7611 6275 l0 -156 156 3 156 3 0 140 c-1 77 -2 146 -2 153 -1 9 -39
12 -155 12 l-155 0 0 -155z"/>
<path d="M7598 3206 c-1 -2 -36 -6 -76 -10 -402 -34 -738 -343 -818 -751 -19
-100 -12 -298 15 -400 59 -225 212 -431 412 -554 395 -243 912 -151 1205 214
247 307 266 752 47 1084 -83 126 -257 274 -390 332 -78 34 -212 68 -293 75
-41 3 -80 7 -87 9 -6 2 -13 2 -15 1z m177 -338 c39 -11 74 -24 80 -29 5 -5 15
-9 23 -9 8 0 42 -20 77 -44 174 -125 277 -323 270 -522 -3 -84 -9 -112 -34
-187 -65 -188 -226 -338 -420 -391 -100 -28 -257 -24 -348 8 -211 74 -363 245
-411 461 -8 38 -8 211 0 248 28 118 86 223 173 313 66 68 207 144 301 163 79
15 211 10 289 -11z"/>
</g>
</svg>
