<svg xmlns="http://www.w3.org/2000/svg" xmlns:xlink="http://www.w3.org/1999/xlink" xmlns:fi="http://pattern.flaticon.com/" x="0" y="0" width="1222" height="300" viewBox="0 0 2138.5 525"><rect x="0px" y="0px" width="100%" height="100%" opacity="1" fill="#f2f2f2"/><defs><path d="m446.398438 299.191406c-.015626-20.121094-16.324219-36.429687-36.445313-36.449218h-2.335937l-160.792969-262.628907-198.257813 285.488281-19.03125-19.035156-29.535156 39.378906 12.800781 9.597657 18.464844-24.621094 63.855469 63.820313 87.496094-111.359376 119.78125 142.28125v8.632813c.058593 18.355469 13.78125 33.792969 32 36v48.445313h16v-48.445313c13.851562-1.710937 25.496093-11.214844 29.945312-24.441406 5.207031 4.132812 11.457031 6.746093 18.054688 7.550781v48.449219h16v-48.449219c18.289062-2.082031 32.074218-17.59375 32-36v-20.671875l33.175781 54.1875 13.648437-8.355469-46.824218-76.476562zm-125.046876-146.710937-2.953124 2.953125-26.34375-26.34375c-3.121094-3.125-8.1875-3.125-11.3125 0l-26.34375 26.34375-26.34375-26.34375c-3.121094-3.125-8.1875-3.125-11.3125 0l-26.34375 26.34375-18.863282-18.867188 74.441406-107.199218zm-139.199218 65.597656-88.472656 112.664063-33.601563-33.597657 102.1875-147.199219 22.476563 22.480469c3.125 3.121094 8.191406 3.121094 11.3125 0l26.34375-26.371093 26.34375 26.34375c3.125 3.125 8.191406 3.125 11.3125 0l26.34375-26.34375 26.34375 26.34375c3.125 3.125 8.191406 3.125 11.3125 0l5.890624-5.886719 60.359376 98.632812c-10.3125 3.820313-18.34375 12.101563-21.847657 22.527344-6.375-5.144531-14.3125-7.964844-22.503906-8h-7.105469c-20.105468.023437-36.402344 16.304687-36.449218 36.40625v44.746094zm184.246094 176.21875c-.007813 11.289063-9.15625 20.4375-20.445313 20.445313h-7.105469c-11.289062-.007813-20.4375-9.15625-20.449218-20.445313v-78.21875c.015624-11.285156 9.160156-20.433594 20.449218-20.445313h7.105469c11.285156.011719 20.433594 9.160157 20.445313 20.445313zm64-16.890625c0 11.292969-9.152344 20.449219-20.445313 20.449219h-7.105469c-11.289062-.011719-20.433594-9.160157-20.449218-20.449219v-78.214844c.011718-11.289062 9.160156-20.4375 20.449218-20.449218h7.105469c11.289063.011718 20.4375 9.160156 20.445313 20.449218zm0 0" transform="matrix(0.12164857983589172 0 0 0.12164857983589172 171 64)" id="L1_0"/><g transform="matrix(0.1171875149011612 0 0 0.1171875149011612 87 266)" id="L1_1"><path d="m379.398438 169.933594-36.851563-36.851563c-14.027344-14.027343-36.730469-14.027343-50.757813 0-14.027343 14.027344-14.03125 36.730469 0 50.757813l36.851563 36.851562c13.992187 13.996094 36.761719 13.996094 50.757813 0 13.996093-13.992187 13.996093-36.761718 0-50.757812zm-77.003907-26.242188c8.164063-8.167968 21.378907-8.167968 29.546875 0l1.394532 1.394532-29.542969 29.546874-1.398438-1.398437c-8.164062-8.164063-8.164062-21.378906 0-29.542969zm66.398438 66.394532c-8.148438 8.148437-21.402344 8.148437-29.546875 0l-24.847656-24.847657 29.542968-29.546875 24.851563 24.851563c8.144531 8.144531 8.144531 21.398437 0 29.542969zm0 0"/><path d="m480.433594 32.742188c-51.546875-52.015626-138.167969-40.457032-174.226563 23.316406-28.027343 49.578125-60.703125 93.179687-97.117187 129.59375-29.296875 29.296875-70.011719 73.40625-152.542969 120.070312-62.898437 35.558594-75.945313 122.074219-23.320313 174.226563 52.792969 52.316406 140.78125 38.707031 175.242188-27.144531 24.894531-47.578126 58.292969-92.472657 99.257812-133.441407 14.203126-14.199219 28.332032-28.835937 52.519532-48.613281l-9.496094-11.613281c-18.171875 14.859375-31.179688 27.171875-44.859375 40.851562v-91.867187h-15v106.957031c-26.148437 26.894531-49.167969 55.398437-68.816406 85.195313v-22.289063c12.820312-13.75 12.855469-35.125 0-48.910156v-110.015625h-15v94.984375l-22.742188-22.742188c-6.78125-6.78125-15.792969-10.511719-25.378906-10.511719-9.589844 0-18.601563 3.730469-25.378906 10.511719-13.996094 13.992188-13.996094 36.761719 0 50.757813l36.851562 36.851562c9.835938 9.839844 24.101563 12.820313 36.648438 8.691406v36.78125c-4.152344 7.09375-8.117188 14.25-11.894531 21.46875-29.71875 56.789063-105.683594 68.746094-151.394532 23.445313-45.570312-45.164063-34.09375-119.855469 20.140625-150.515625 84.128907-47.5625 126.0625-92.8125 155.769531-122.523438 37.375-37.371093 70.875-82.058593 99.570313-132.816406 31.078125-54.96875 105.859375-65.199218 150.515625-20.140625 45.382812 45.792969 33.226562 121.738281-23.445312 151.390625-26.929688 14.09375-53.28125 31-78.335938 50.253906l9.144531 11.894532c24.363281-18.730469 49.984375-35.167969 76.144531-48.855469 65.695313-34.378906 79.570313-122.34375 27.144532-175.242187zm-336.253906 269.164062c8.164062-8.164062 21.378906-8.167969 29.542968 0l1.398438 1.394531-29.546875 29.546875-1.394531-1.394531c-8.148438-8.148437-8.148438-21.402344 0-29.546875zm36.851562 66.398438-24.851562-24.851563 29.546874-29.542969 24.847657 24.847656c8.164062 8.164063 8.164062 21.378907 0 29.546876-8.144531 8.144531-21.398438 8.144531-29.542969 0zm0 0"/><path d="m280.890625 308.0625h-15v-69.011719h15zm0-79.011719h-15v-15h15zm0-25h-15v-15h15zm0 0"/><path d="m110.769531 487c-22.703125 0-44.066406-8.851562-60.1875-24.921875l10.589844-10.621094c13.289063 13.246094 30.894531 20.542969 49.574219 20.542969h.457031c10.4375-.066406 20.503906-2.375 29.898437-6.875l6.476563 13.527344c-11.398437 5.460937-23.617187 8.269531-36.304687 8.347656zm46.367188-13.703125-8.164063-12.585937c3.785156-2.453126 7.34375-5.289063 10.585938-8.421876l10.429687 10.78125c-3.933593 3.804688-8.257812 7.246094-12.851562 10.226563zm20.21875-18.335937-11.722657-9.355469c2.808594-3.519531 5.296876-7.335938 7.394532-11.347657l13.289062 6.957032c-2.539062 4.855468-5.554687 9.480468-8.960937 13.746094zm0 0"/><path d="m441.699219 185.832031-6.957031-13.289062c23.121093-12.097657 37.582031-35.796875 37.742187-61.847657v-.4375c0-3.222656-.21875-6.460937-.660156-9.632812l14.859375-2.058594c.53125 3.851563.800781 7.785156.800781 11.691406v.550782c-.195313 31.59375-17.738281 60.347656-45.785156 75.023437zm28.3125-94.035156c-1.191407-4.339844-2.816407-8.582031-4.832031-12.617187l13.417968-6.707032c2.453125 4.90625 4.429688 10.074219 5.878906 15.355469zm-9.378907-20.414063c-2.507812-3.722656-5.40625-7.25-8.609374-10.484374l10.652343-10.558594c3.867188 3.898437 7.363281 8.164062 10.398438 12.667968zm0 0"/></g><g transform="matrix(0.11718741804361343 0 0 0.11718741804361343 5 314)" id="L1_2"><path d="m461.285156 226.507812-76.492187-5.464843-50.554688-84.214844-25.273437-42.167969v-11.679687c.007812-12.675781-10.261719-22.957031-22.9375-22.964844-2.839844-.003906-5.65625.523437-8.300782 1.546875l-72.6875 28.039062 5.492188-18.433593c4.335938-15.496094-2.699219-31.921875-16.90625-39.476563l-57.035156-30.640625c-4.148438-2.226562-9.316406-.804687-11.742188 3.230469l-83.660156 133.96875-1.765625-1.023438c-4.226563-2.429687-9.621094-.96875-12.046875 3.257813-.054688.089844-.101562.179687-.152344.273437l-26.191406 49.308594c-2.257812 4.257813-.683594 9.535156 3.53125 11.867188l318.535156 176.550781c1.308594.722656 2.777344 1.101563 4.273438 1.101563h131.664062c29.238282-.027344 52.9375-23.722657 52.964844-52.964844v-45.65625c-.09375-28.609375-22.183594-52.328125-50.714844-54.457032zm-94.941406-1.890624-10.082031 3.363281-78.988281-102.699219 20.304687-15.246094zm-230.691406-204.03125 49.621094 26.632812c6.878906 3.636719 10.316406 11.550781 8.28125 19.058594l-7.292969 24.578125-50.671875-30.386719-17.546875-10.53125zm-52.265625 84.25 4.519531-7.0625 29.042969 21.601562c14.78125 11.097656 22.328125 29.375 19.683593 47.671875l-1.101562 25.511719-78.894531-45.472656zm375.648437 257.097656h-129.394531l-308.964844-171.257813 17.839844-33.542969 292.519531 168.3125c1.34375.773438 2.863282 1.179688 4.414063 1.175782h158.894531c0 19.5-15.808594 35.3125-35.308594 35.3125zm35.308594-52.96875h-156.539062l-60.546876-34.859375 20.355469-20.753907c3.363281-3.527343 3.230469-9.117187-.300781-12.480468-3.457031-3.296875-8.910156-3.242188-12.304688.121094l-23.550781 24.011718-33.546875-19.332031 33.644532-26.914063c3.804687-3.046874 4.421874-8.605468 1.375-12.414062-3.046876-3.804688-8.605469-4.421875-12.410157-1.375l-39.046875 31.242188-28.742187-16.527344 43.609375-36.34375c3.75-3.121094 4.257812-8.6875 1.140625-12.4375-3.121094-3.75-8.691407-4.257813-12.441407-1.140625l-48.621093 40.527343-13.648438-7.855468 1.429688-33.886719c3.269531-24.414063-6.960938-48.679687-26.71875-63.382813l-30.078125-22.363281 11.363281-17.839843 78.140625 46.882812c1.050781.605469 2.214844.980469 3.417969 1.105469.210937 0 .394531.070312.609375.085937.210937.019532.34375.0625.511718.0625 1.089844.003906 2.175782-.195312 3.195313-.589844l89.421875-34.488281c1.636719-.625 3.46875-.410156 4.917969.574219 1.453125.996094 2.316406 2.648438 2.304687 4.414062v9.710938l-31.78125 23.832031c-3.898437 2.929688-4.683594 8.464844-1.753906 12.359375.019531.027344.039062.054688.058594.078125l88.277344 114.761719c2.28125 2.988281 6.214843 4.191406 9.78125 2.992188l24.8125-8.273438 79.328124 5.667969c19.304688 1.429687 34.261719 17.46875 34.335938 36.828125zm0 0"/><path d="m52.964844 256h-44.136719c-4.875 0-8.828125 3.953125-8.828125 8.828125s3.953125 8.828125 8.828125 8.828125h44.136719c4.875 0 8.828125-3.953125 8.828125-8.828125s-3.953125-8.828125-8.828125-8.828125zm0 0"/><path d="m0 317.792969c0 4.875 3.953125 8.828125 8.828125 8.828125h114.757813c4.875 0 8.828124-3.953125 8.828124-8.828125s-3.953124-8.828125-8.828124-8.828125h-114.757813c-4.875 0-8.828125 3.953125-8.828125 8.828125zm0 0"/><path d="m220.691406 361.933594h-211.863281c-4.875 0-8.828125 3.949218-8.828125 8.824218s3.953125 8.828126 8.828125 8.828126h211.863281c4.875 0 8.824219-3.953126 8.824219-8.828126s-3.949219-8.824218-8.824219-8.824218zm0 0"/></g><g transform="matrix(0.125 0 0 0.125 264 289)" id="L1_3"><path d="M56,416c-30.872,0-56,25.128-56,56c0,4.424,3.576,8,8,8h96c4.424,0,8-3.576,8-8C112,441.128,86.872,416,56,416z     M16.808,464C19.992,448.36,32.36,436.072,48,432.88V448h16v-15.12c15.64,3.2,28.008,15.48,31.192,31.12H16.808z"/><path d="M472,344h-14.032c-0.44-1.112-0.896-2.216-1.392-3.328l9.928-9.928c3.128-3.128,3.128-8.184,0-11.312l-33.936-33.936    c-1.656-1.656-3.84-2.376-6.008-2.272C439.24,276.496,448,263.32,448,248V40c0-22.056-17.944-40-40-40H40C17.944,0,0,17.944,0,40    v208c0,22.056,17.944,40,40,40h104.4l-30.224,56H112h-12c-15.44,0-28,12.56-28,28s12.56,28,28,28h172c0,4.424,3.576,8,8,8h14.032    c0.44,1.112,0.896,2.216,1.392,3.328l-9.928,9.928c-3.128,3.128-3.128,8.184,0,11.312l33.936,33.936    c3.128,3.128,8.184,3.128,11.312,0l9.928-9.928c1.112,0.496,2.216,0.952,3.328,1.392V472c0,4.424,3.576,8,8,8h48    c4.424,0,8-3.576,8-8v-14.032c1.112-0.44,2.216-0.896,3.328-1.392l9.928,9.928c3.128,3.128,8.184,3.128,11.312,0l33.936-33.936    c3.128-3.128,3.128-8.184,0-11.312l-9.928-9.928c0.496-1.112,0.952-2.216,1.392-3.328H472c4.424,0,8-3.576,8-8v-48    C480,347.576,476.424,344,472,344z M16,40c0-13.232,10.768-24,24-24h368c13.232,0,24,10.768,24,24v168H16V40z M40,272    c-13.232,0-24-10.768-24-24v-24h416v24c0,13.232-10.768,24-24,24h-8h-48h-61.808H157.808H40z M421.152,285.6l-9.824,9.824    c-1.112-0.496-2.216-0.952-3.328-1.392V288C412.632,288,417.008,287.056,421.152,285.6z M344,288v6.032    c-1.112,0.44-2.216,0.896-3.328,1.392L333.248,288H344z M316.92,288l-6.896,6.896L305.328,288H316.92z M272,384H100    c-6.616,0-12-5.384-12-12c0-6.616,5.384-12,12-12h12h6.944H272V384z M132.356,343.992L162.576,288h123.392l12.544,18.408    l-13.016,13.016c-3.128,3.128-3.128,8.184,0,11.312l9.928,9.928c-0.496,1.112-0.952,2.216-1.392,3.328H280H132.356z M464,392    h-11.672c-3.496,0-6.576,2.264-7.632,5.592c-1.216,3.864-2.856,7.8-4.88,11.672c-1.616,3.104-1.032,6.888,1.44,9.36l8.288,8.288    l-22.624,22.624l-8.288-8.288c-2.48-2.472-6.256-3.048-9.36-1.44c-3.872,2.024-7.808,3.664-11.672,4.88    c-3.336,1.064-5.6,4.144-5.6,7.64V464h-32v-11.672c0-3.496-2.264-6.576-5.592-7.632c-3.864-1.216-7.8-2.856-11.672-4.88    c-3.104-1.608-6.888-1.032-9.36,1.44l-8.288,8.288l-22.624-22.624l8.288-8.288c2.472-2.472,3.056-6.256,1.44-9.36    c-2.024-3.872-3.664-7.808-4.88-11.672c-1.064-3.336-4.144-5.6-7.64-5.6H288v-32h11.672c3.496,0,6.576-2.264,7.632-5.592    c1.216-3.864,2.856-7.8,4.88-11.672c1.616-3.104,1.032-6.888-1.44-9.36l-8.288-8.288l22.624-22.624l8.288,8.288    c2.472,2.48,6.256,3.056,9.36,1.44c3.872-2.024,7.808-3.664,11.672-4.88c3.336-1.064,5.6-4.144,5.6-7.64V288h32v11.672    c0,3.496,2.264,6.576,5.592,7.632c3.864,1.216,7.8,2.856,11.672,4.88c3.104,1.616,6.88,1.04,9.36-1.44l8.288-8.288l22.624,22.624    l-8.288,8.288c-2.472,2.472-3.056,6.256-1.44,9.36c2.024,3.872,3.664,7.808,4.88,11.672c1.064,3.336,4.144,5.6,7.64,5.6H464V392z"/><path d="M376,328c-26.472,0-48,21.528-48,48s21.528,48,48,48s48-21.528,48-48S402.472,328,376,328z M376,408    c-17.648,0-32-14.352-32-32s14.352-32,32-32s32,14.352,32,32S393.648,408,376,408z"/><path d="M157.656,61.656l-11.312-11.312l-56,56c-3.128,3.128-3.128,8.184,0,11.312l56,56l11.312-11.312L107.312,112    L157.656,61.656z"/><path d="M333.656,106.344l-56-56l-11.312,11.312L316.688,112l-50.344,50.344l11.312,11.312l56-56    C336.784,114.528,336.784,109.472,333.656,106.344z"/><rect x="131px" y="96px" width="160px" height="16px" transform="matrix(0.4472 -0.8944 0.8944 0.4472 24.1457 247.1068)"/><rect x="312px" y="160px" width="16px" height="16px"/><rect x="344px" y="160px" width="16px" height="16px"/><rect x="376px" y="160px" width="16px" height="16px"/></g><g transform="matrix(1.034482717514038 0 0 1.034482717514038 17 69)" id="L1_4"><path d="M50.949,12.187l-1.361-1.361l-9.504-9.505c-0.001-0.001-0.001-0.001-0.001-0.001l-0.771-0.771   C38.957,0.195,38.486,0,37.985,0H8.963C7.776,0,6.5,0.916,6.5,2.926V39v16.537V56c0,0.837,0.841,1.652,1.836,1.909   c0.051,0.014,0.1,0.033,0.152,0.043C8.644,57.983,8.803,58,8.963,58h40.074c0.16,0,0.319-0.017,0.475-0.048   c0.052-0.01,0.101-0.029,0.152-0.043C50.659,57.652,51.5,56.837,51.5,56v-0.463V39V13.978C51.5,13.211,51.407,12.644,50.949,12.187   z M39.5,3.565L47.935,12H39.5V3.565z M8.963,56c-0.071,0-0.135-0.025-0.198-0.049C8.61,55.877,8.5,55.721,8.5,55.537V41h41v14.537   c0,0.184-0.11,0.34-0.265,0.414C49.172,55.975,49.108,56,49.037,56H8.963z M8.5,39V2.926C8.5,2.709,8.533,2,8.963,2h28.595   C37.525,2.126,37.5,2.256,37.5,2.391V13.78c-0.532-0.48-1.229-0.78-2-0.78c-0.553,0-1,0.448-1,1s0.447,1,1,1c0.552,0,1,0.449,1,1v4   c0,1.2,0.542,2.266,1.382,3c-0.84,0.734-1.382,1.8-1.382,3v4c0,0.551-0.448,1-1,1c-0.553,0-1,0.448-1,1s0.447,1,1,1   c1.654,0,3-1.346,3-3v-4c0-1.103,0.897-2,2-2c0.553,0,1-0.448,1-1s-0.447-1-1-1c-1.103,0-2-0.897-2-2v-4   c0-0.771-0.301-1.468-0.78-2h11.389c0.135,0,0.265-0.025,0.391-0.058c0,0.015,0.001,0.021,0.001,0.036V39H8.5z"/><path d="M25.354,51.43c-0.019,0.446-0.171,0.764-0.458,0.95s-0.673,0.28-1.155,0.28c-0.191,0-0.396-0.022-0.615-0.068   s-0.429-0.098-0.629-0.157c-0.201-0.06-0.385-0.123-0.554-0.191s-0.299-0.135-0.39-0.198l-0.697,1.107   c0.182,0.137,0.405,0.26,0.67,0.369c0.264,0.109,0.54,0.207,0.827,0.294s0.565,0.15,0.834,0.191s0.503,0.062,0.704,0.062   c0.4,0,0.791-0.039,1.169-0.116s0.713-0.214,1.005-0.41c0.291-0.196,0.523-0.456,0.697-0.779c0.173-0.323,0.26-0.723,0.26-1.196   v-7.848h-1.668V51.43z"/><path d="M34.083,49.064c-0.314-0.228-0.654-0.422-1.019-0.581c-0.365-0.159-0.702-0.323-1.012-0.492   c-0.311-0.169-0.57-0.364-0.779-0.588c-0.21-0.224-0.314-0.518-0.314-0.882c0-0.146,0.036-0.299,0.109-0.458   c0.072-0.159,0.173-0.303,0.301-0.431c0.127-0.128,0.273-0.234,0.438-0.321s0.337-0.139,0.52-0.157   c0.328-0.027,0.597-0.032,0.807-0.014c0.209,0.019,0.378,0.05,0.506,0.096c0.127,0.046,0.226,0.091,0.294,0.137   s0.13,0.082,0.185,0.109c0.009-0.009,0.036-0.055,0.082-0.137c0.045-0.082,0.1-0.185,0.164-0.308   c0.063-0.123,0.132-0.255,0.205-0.396c0.072-0.142,0.137-0.271,0.191-0.39c-0.265-0.173-0.611-0.299-1.039-0.376   c-0.429-0.077-0.853-0.116-1.271-0.116c-0.41,0-0.8,0.063-1.169,0.191s-0.692,0.313-0.971,0.554s-0.499,0.535-0.663,0.882   S29.4,46.13,29.4,46.576c0,0.492,0.104,0.902,0.314,1.23c0.209,0.328,0.474,0.613,0.793,0.854c0.318,0.241,0.66,0.451,1.025,0.629   c0.364,0.178,0.704,0.355,1.019,0.533s0.576,0.376,0.786,0.595c0.209,0.219,0.314,0.483,0.314,0.793   c0,0.511-0.148,0.896-0.444,1.155s-0.723,0.39-1.278,0.39c-0.183,0-0.379-0.019-0.588-0.055c-0.21-0.036-0.42-0.084-0.629-0.144   c-0.21-0.06-0.412-0.123-0.608-0.191s-0.358-0.139-0.485-0.212l-0.287,1.176c0.154,0.137,0.34,0.253,0.554,0.349   s0.439,0.171,0.677,0.226c0.236,0.055,0.472,0.094,0.704,0.116s0.458,0.034,0.677,0.034c0.51,0,0.966-0.077,1.367-0.232   c0.4-0.155,0.738-0.362,1.012-0.622s0.485-0.561,0.636-0.902s0.226-0.695,0.226-1.06c0-0.538-0.105-0.978-0.314-1.319   C34.659,49.577,34.397,49.292,34.083,49.064z"/><path d="M20.5,20v-4c0-0.551,0.448-1,1-1c0.553,0,1-0.448,1-1s-0.447-1-1-1c-1.654,0-3,1.346-3,3v4c0,1.103-0.897,2-2,2   c-0.553,0-1,0.448-1,1s0.447,1,1,1c1.103,0,2,0.897,2,2v4c0,1.654,1.346,3,3,3c0.553,0,1-0.448,1-1s-0.447-1-1-1   c-0.552,0-1-0.449-1-1v-4c0-1.2-0.542-2.266-1.382-3C19.958,22.266,20.5,21.2,20.5,20z"/><circle cx="28" cy="19" r="1"/><path d="M28.5,25c-0.553,0-1,0.448-1,1v3c0,0.552,0.447,1,1,1s1-0.448,1-1v-3C29.5,25.448,29.053,25,28.5,25z"/></g><g transform="matrix(0.11741682887077332 0 0 0.11741682887077332 144 121)" id="L1_5"><path d="M470.962,102.751c-0.018-0.182-0.049-0.359-0.08-0.537c-0.011-0.063-0.017-0.128-0.029-0.191   c-0.042-0.21-0.096-0.416-0.155-0.619c-0.009-0.03-0.014-0.061-0.023-0.091c-0.063-0.207-0.138-0.409-0.218-0.608   c-0.011-0.027-0.019-0.055-0.03-0.081c-0.078-0.189-0.168-0.372-0.261-0.552c-0.019-0.037-0.034-0.075-0.054-0.112   c-0.089-0.167-0.189-0.327-0.291-0.486c-0.03-0.048-0.057-0.098-0.088-0.145c-0.101-0.151-0.213-0.295-0.324-0.438   c-0.039-0.05-0.073-0.102-0.113-0.151c-0.156-0.189-0.32-0.372-0.493-0.545L372.805,2.198c-0.173-0.173-0.355-0.338-0.545-0.493   c-0.049-0.04-0.102-0.074-0.151-0.113c-0.143-0.112-0.287-0.223-0.438-0.324c-0.047-0.032-0.097-0.058-0.145-0.088   c-0.159-0.101-0.319-0.201-0.486-0.291c-0.036-0.02-0.075-0.035-0.112-0.054c-0.181-0.093-0.364-0.183-0.552-0.261   c-0.027-0.011-0.055-0.019-0.081-0.03c-0.199-0.08-0.401-0.155-0.608-0.218c-0.03-0.009-0.061-0.015-0.091-0.023   c-0.203-0.059-0.409-0.114-0.619-0.156c-0.063-0.013-0.128-0.018-0.191-0.029c-0.178-0.031-0.355-0.062-0.537-0.08   C368.001,0.013,367.751,0,367.5,0h-224C121.72,0,104,17.72,104,39.5V80H71.5C54.131,80,40,94.131,40,111.5v80   c0,17.369,14.131,31.5,31.5,31.5H104v248.5c0,21.78,17.72,39.5,39.5,39.5h288c21.78,0,39.5-17.72,39.5-39.5v-368   C471,103.249,470.987,102.999,470.962,102.751z M375,25.606L445.394,96H399.5C385.991,96,375,85.009,375,71.5V25.606z M55,191.5   v-80c0-9.098,7.402-16.5,16.5-16.5h232c9.098,0,16.5,7.402,16.5,16.5v80c0,9.098-7.402,16.5-16.5,16.5H111.519   c-0.006,0-0.013-0.001-0.019-0.001S111.487,208,111.481,208H71.5C62.402,208,55,200.598,55,191.5z M431.5,496h-288   c-13.509,0-24.5-10.991-24.5-24.5V223h184.5c17.369,0,31.5-14.131,31.5-31.5v-80c0-17.369-14.131-31.5-31.5-31.5H119V39.5   c0-13.509,10.991-24.5,24.5-24.5H360v56.5c0,21.78,17.72,39.5,39.5,39.5H456v360.5C456,485.009,445.009,496,431.5,496z"/><path d="M223,319.5c0-4.687,3.813-8.5,8.5-8.5h8c4.142,0,7.5-3.358,7.5-7.5s-3.358-7.5-7.5-7.5h-8c-12.958,0-23.5,10.542-23.5,23.5   v24c0,4.687-3.813,8.5-8.5,8.5c-4.142,0-7.5,3.358-7.5,7.5s3.358,7.5,7.5,7.5c4.687,0,8.5,3.813,8.5,8.5v24   c0,12.958,10.542,23.5,23.5,23.5h8c4.142,0,7.5-3.358,7.5-7.5s-3.358-7.5-7.5-7.5h-8c-4.687,0-8.5-3.813-8.5-8.5v-24   c0-6.175-2.394-11.802-6.303-16c3.909-4.198,6.303-9.825,6.303-16V319.5z"/><path d="M375.5,352c-4.687,0-8.5-3.813-8.5-8.5v-24c0-12.958-10.542-23.5-23.5-23.5h-8c-4.142,0-7.5,3.358-7.5,7.5   s3.358,7.5,7.5,7.5h8c4.687,0,8.5,3.813,8.5,8.5v24c0,6.175,2.394,11.802,6.303,16c-3.909,4.198-6.303,9.825-6.303,16v24   c0,4.687-3.813,8.5-8.5,8.5h-8c-4.142,0-7.5,3.358-7.5,7.5s3.358,7.5,7.5,7.5h8c12.958,0,23.5-10.542,23.5-23.5v-24   c0-4.687,3.813-8.5,8.5-8.5c4.142,0,7.5-3.358,7.5-7.5S379.642,352,375.5,352z"/><path d="M255.503,384c-1.98,0-3.91,0.8-5.31,2.2c-1.39,1.39-2.19,3.33-2.19,5.3c0,1.98,0.8,3.91,2.19,5.3   c1.4,1.4,3.33,2.2,5.31,2.2c1.97,0,3.9-0.8,5.3-2.2c1.4-1.39,2.2-3.32,2.2-5.3c0-1.97-0.8-3.91-2.2-5.3   C259.403,384.8,257.473,384,255.503,384z"/><path d="M287.503,384c-1.98,0-3.91,0.8-5.31,2.2c-1.39,1.39-2.19,3.33-2.19,5.3c0,1.97,0.8,3.91,2.19,5.3   c1.4,1.4,3.33,2.2,5.31,2.2c1.97,0,3.9-0.8,5.3-2.2c1.4-1.39,2.2-3.32,2.2-5.3s-0.8-3.91-2.2-5.3   C291.403,384.8,289.473,384,287.503,384z"/><path d="M319.503,384c-1.98,0-3.91,0.8-5.31,2.2c-1.39,1.39-2.19,3.33-2.19,5.3c0,1.98,0.8,3.91,2.19,5.3   c1.4,1.4,3.33,2.2,5.31,2.2c1.97,0,3.9-0.8,5.3-2.2c1.4-1.39,2.2-3.32,2.2-5.3c0-1.97-0.8-3.91-2.2-5.3   C323.403,384.8,321.473,384,319.503,384z"/><path d="M199.5,176h-40c-4.142,0-7.5,3.358-7.5,7.5s3.358,7.5,7.5,7.5h40c12.958,0,23.5-10.542,23.5-23.5S212.458,144,199.5,144   h-24c-4.687,0-8.5-3.813-8.5-8.5s3.813-8.5,8.5-8.5h32c4.142,0,7.5-3.358,7.5-7.5s-3.358-7.5-7.5-7.5h-32   c-12.958,0-23.5,10.542-23.5,23.5s10.542,23.5,23.5,23.5h24c4.687,0,8.5,3.813,8.5,8.5S204.187,176,199.5,176z"/><path d="M279.5,176h-40c-4.142,0-7.5,3.358-7.5,7.5s3.358,7.5,7.5,7.5h40c12.958,0,23.5-10.542,23.5-23.5S292.458,144,279.5,144   h-24c-4.687,0-8.5-3.813-8.5-8.5s3.813-8.5,8.5-8.5h32c4.142,0,7.5-3.358,7.5-7.5s-3.358-7.5-7.5-7.5h-32   c-12.958,0-23.5,10.542-23.5,23.5s10.542,23.5,23.5,23.5h24c4.687,0,8.5,3.813,8.5,8.5S284.187,176,279.5,176z"/><path d="M111.5,191c8.835,0,17.344-3.82,23.344-10.48c2.772-3.078,2.525-7.82-0.552-10.592c-3.078-2.771-7.819-2.525-10.592,0.552   c-3.207,3.56-7.539,5.52-12.199,5.52h-8c-9.098,0-16.5-7.402-16.5-16.5v-16c0-9.098,7.402-16.5,16.5-16.5h8   c4.66,0,8.993,1.96,12.199,5.52c2.772,3.078,7.514,3.325,10.592,0.552c3.078-2.772,3.325-7.515,0.552-10.592   c-6-6.66-14.508-10.48-23.344-10.48h-8C86.131,112,72,126.131,72,143.5v16c0,17.369,14.131,31.5,31.5,31.5H111.5z"/></g></defs><g fi:class="KUsePattern"><pattern id="pattern_L1_0" width="350" height="350" patternUnits="userSpaceOnUse"><use xlink:href="#L1_0" x="-350" y="-350"/><use xlink:href="#L1_0" x="0" y="-350"/><use xlink:href="#L1_0" x="350" y="-350"/><use xlink:href="#L1_0" x="-350" y="0"/><use xlink:href="#L1_0" x="0" y="0"/><use xlink:href="#L1_0" x="350" y="0"/><use xlink:href="#L1_0" x="-350" y="350"/><use xlink:href="#L1_0" x="0" y="350"/><use xlink:href="#L1_0" x="350" y="350"/></pattern><rect x="0" y="0" width="100%" height="100%" fill="url(#pattern_L1_0)"/></g><g fi:class="KUsePattern"><pattern id="pattern_L1_1" width="350" height="350" patternUnits="userSpaceOnUse"><use xlink:href="#L1_1" x="-350" y="-350"/><use xlink:href="#L1_1" x="0" y="-350"/><use xlink:href="#L1_1" x="350" y="-350"/><use xlink:href="#L1_1" x="-350" y="0"/><use xlink:href="#L1_1" x="0" y="0"/><use xlink:href="#L1_1" x="350" y="0"/><use xlink:href="#L1_1" x="-350" y="350"/><use xlink:href="#L1_1" x="0" y="350"/><use xlink:href="#L1_1" x="350" y="350"/></pattern><rect x="0" y="0" width="100%" height="100%" fill="url(#pattern_L1_1)"/></g><g fi:class="KUsePattern"><pattern id="pattern_L1_2" width="350" height="350" patternUnits="userSpaceOnUse"><use xlink:href="#L1_2" x="-350" y="-350"/><use xlink:href="#L1_2" x="0" y="-350"/><use xlink:href="#L1_2" x="350" y="-350"/><use xlink:href="#L1_2" x="-350" y="0"/><use xlink:href="#L1_2" x="0" y="0"/><use xlink:href="#L1_2" x="350" y="0"/><use xlink:href="#L1_2" x="-350" y="350"/><use xlink:href="#L1_2" x="0" y="350"/><use xlink:href="#L1_2" x="350" y="350"/></pattern><rect x="0" y="0" width="100%" height="100%" fill="url(#pattern_L1_2)"/></g><g fi:class="KUsePattern"><pattern id="pattern_L1_3" width="350" height="350" patternUnits="userSpaceOnUse"><use xlink:href="#L1_3" x="-350" y="-350"/><use xlink:href="#L1_3" x="0" y="-350"/><use xlink:href="#L1_3" x="350" y="-350"/><use xlink:href="#L1_3" x="-350" y="0"/><use xlink:href="#L1_3" x="0" y="0"/><use xlink:href="#L1_3" x="350" y="0"/><use xlink:href="#L1_3" x="-350" y="350"/><use xlink:href="#L1_3" x="0" y="350"/><use xlink:href="#L1_3" x="350" y="350"/></pattern><rect x="0" y="0" width="100%" height="100%" fill="url(#pattern_L1_3)"/></g><g fi:class="KUsePattern"><pattern id="pattern_L1_4" width="350" height="350" patternUnits="userSpaceOnUse"><use xlink:href="#L1_4" x="-350" y="-350"/><use xlink:href="#L1_4" x="0" y="-350"/><use xlink:href="#L1_4" x="350" y="-350"/><use xlink:href="#L1_4" x="-350" y="0"/><use xlink:href="#L1_4" x="0" y="0"/><use xlink:href="#L1_4" x="350" y="0"/><use xlink:href="#L1_4" x="-350" y="350"/><use xlink:href="#L1_4" x="0" y="350"/><use xlink:href="#L1_4" x="350" y="350"/></pattern><rect x="0" y="0" width="100%" height="100%" fill="url(#pattern_L1_4)"/></g><g fi:class="KUsePattern"><pattern id="pattern_L1_5" width="350" height="350" patternUnits="userSpaceOnUse"><use xlink:href="#L1_5" x="-350" y="-350"/><use xlink:href="#L1_5" x="0" y="-350"/><use xlink:href="#L1_5" x="350" y="-350"/><use xlink:href="#L1_5" x="-350" y="0"/><use xlink:href="#L1_5" x="0" y="0"/><use xlink:href="#L1_5" x="350" y="0"/><use xlink:href="#L1_5" x="-350" y="350"/><use xlink:href="#L1_5" x="0" y="350"/><use xlink:href="#L1_5" x="350" y="350"/></pattern><rect x="0" y="0" width="100%" height="100%" fill="url(#pattern_L1_5)"/></g></svg>