<?xml version="1.0" encoding="utf-8"?>
<!-- Generator: Adobe Illustrator 23.0.1, SVG Export Plug-In . SVG Version: 6.00 Build 0)  -->
<svg version="1.1" id="svg4271" xmlns="http://www.w3.org/2000/svg" xmlns:xlink="http://www.w3.org/1999/xlink" x="0px" y="0px"
	 viewBox="0 0 2500 444" style="enable-background:new 0 0 2500 444;" xml:space="preserve">
<g id="layer1" transform="translate(737.143 22.607)">
	<path d="M1495.8,131.6c-12.3,0-19.1,6.8-19.1,23.9v13.6c0,17,6.8,23.9,19.1,23.9c10.2,1.4,17-6.8,17-23.9v-13.6
		C1512.8,138.5,1506,131.6,1495.8,131.6z"/>
	<path d="M1756.8,52.4c-6.8-36.1-36.1-63.4-73.6-71.6c-5.5-2-13.6-2-22.5-2c-66.8-1.4-211.3,34.8-257.6,51.8
		c-39.5,13.6-92,42.9-98.8,121.3c-2,22.5-2,60,5.5,81.8c8.9,32.7,36.1,61.3,97.5,70.2c70.2,10.2,209.9,15.7,272.6-5.5
		c34.1-10.2,64.7-44.3,73.6-77C1763.6,183.9,1763.6,88.5,1756.8,52.4z M1431.1,111.2c0,2-2,15.7-2,17c0,3.4-2,3.4-5.5,3.4
		c-6.8,0-13.6-2-23.9-2c-8.9,0-17,5.5-17,23.9v17c0,17,6.8,23.9,17,23.9c12.3,0,22.5-2,23.9-2s3.4,2,5.5,3.4c0,2,2,15.7,2,17
		c0,2-2,3.4-3.4,5.5c-5.5,2-17,3.4-29.3,3.4c-29.3,0-46.3-19.1-46.3-51.1v-17c0-32.7,19.1-51.1,46.3-51.1c12.3,0,23.9,2,29.3,3.4
		C1431.1,105.7,1433.1,107.8,1431.1,111.2z M1544.9,169.1c0,32.7-17,53.2-49.8,53.2s-51.1-20.4-51.1-53.2v-13.6
		c0-32.7,17-53.2,51.1-53.2c32.7,0,49.8,20.4,49.8,53.2V169.1z M1713.9,218.2h-23.9c-2,0-3.4-2-3.4-3.4v-68.2c0-13.6-3.4-17-12.3-17
		c-3.4,0-10.2,0-15.7,3.4v81.8c0,2-2,3.4-3.4,3.4h-25.9c-2,0-3.4-2-3.4-3.4v-68.2c0-13.6-2-17-12.3-17c-3.4,0-8.9,2-15.7,5.5v80.4
		c0,2-2,3.4-3.4,3.4h-25.9c-2,0-3.4-2-3.4-3.4V107.8c0-2,2-3.4,3.4-3.4h22.5c2,0,3.4,2,3.4,3.4v5.5c8.9-5.5,19.1-10.2,29.3-10.2
		s19.1,3.4,23.9,10.2c12.3-6.8,20.4-10.2,32.7-10.2c27.3,0,34.1,17,34.1,44.3c0.7-0.7,2.7,67.5,2.7,67.5
		C1717.3,216.8,1715.3,218.2,1713.9,218.2z"/>
	<g id="g4047" transform="matrix(6.81558 0 0 -6.81558 93.236 132.623)">
		<path id="path4049" d="M182.8-33.9c0,2.3-0.5,4-1.3,5c-1.3,1.5-3.3,2.3-6.3,2.3H173c-3,0-5-0.8-6.3-2.3c-0.8-1-1.3-2.8-1.3-5
			c0-2.5,0.5-4.3,1.3-5.3c1.3-1.8,3.3-2.3,6.3-2.3h2c3,0,5.3,0.5,6.5,2.3C182.3-38.2,182.8-36.4,182.8-33.9"/>
	</g>
	<g id="g4051" transform="matrix(6.81558 0 0 -6.81558 -213.458 155.402)">
		<path id="path4053" d="M115.2-39c10.5,0,14,6.3,14,11.8s-2.8,8.8-7.5,11.5c-4.8,2.5-6.5,3.5-8.3,4.5s-2.3,1.3-2.3,2.8
			c0,1.3,1.3,2.3,4,2.3c3,0,7.8-0.8,9.8-1c1.5-0.3,2.3,0.8,2.5,1.8c0.3,1.3,0.5,2,1,3.5s-0.5,2.5-1.5,2.8c-2.8,0.8-7.3,2-12.8,2
			c-8.8,0-13.8-4.3-13.8-11.8c0-3.8,2-6.8,6-9.3s7.5-4.5,9.5-5.8c2-1.3,2.5-2.5,2.5-3c0-1.3-0.8-2.5-4-2.5s-8.3,0.8-10.5,1.3
			c-1.5,0.3-2.3-0.8-2.5-1.3c0-1.5-0.8-4.3-1-5.3c-0.5-1.8,0.8-2.5,1.3-2.8C106.4-38.7,112.2-39,115.2-39 M-56.7-38.7
			c4.8,0,9.8,1,11.3,1.3c1.8,0.3,2.3,1.8,2,2.8s-1,3.5-1.3,4.3c-0.3,1-0.8,2-2.5,2c-1.8,0-6.3-0.5-9.5-0.5c-6,0-9,4-9,12v10
			c0,8,3,12,9,12c3.3,0,7-0.3,9.3-0.5c1.3,0,2,0.8,2.3,1.5c0.5,1.5,1,3.5,1.3,5c0.3,1-0.5,2.3-1.5,2.5c-2.5,0.5-6.5,1.5-11.8,1.5
			c-6,0-20-2-20-21.5v-10C-76.7-37.2-61.4-38.7-56.7-38.7 M84.9-36c0-1.3,1-2.3,2.3-2.3h6.3c1,0,2,1,2,2.3v35.5c0,1.3-1,2.3-2.3,2.3
			h-6.3c-1.3,0-2.3-1-2.3-2.3v-26.8c-1.8-1-4.8-2.5-7-2.5c-4.3,0-5,1.5-5,7v22.3c0,1.3-1,2.3-2.3,2.3H64c-1.3,0-2.3-1-2.3-2.3v-22.3
			c0-9.8,2.8-16,12.5-16C79.2-38.7,81.9-37.7,84.9-36 M48.9-38.2c1.3,0,2.3,1,2.3,2v29.5h5.5c1.3,0,2.3,1,2.3,2v4
			c0,1.3-1,2.3-2.3,2.3h-5.5v2.8c0,2.8,0.5,3.3,3.3,3.3c0.5,0,2.8-0.3,2.8-0.3c1.3,0,2,0.8,2.3,1.5c0.3,0.8,0.8,2.3,1,3.5
			s-0.3,2.5-1.8,2.8c-1.3,0.3-3.5,0.5-5.3,0.5C47.2,15.7,41,14.2,41,3.9V1.3h-5.3c-1.3,0-2.3-1-2.3-2.3v-3.3c0-1,0.5-1.8,2-2
			c1.3-0.3,5.5-1,5.5-1V-36c0-1.3,1-2.3,2.3-2.3L48.9-38.2L48.9-38.2z M28.1-38.2c1.3,0,2.3,1,2.3,2v22.3c0,8-1.5,16-12.5,16
			c-4.3,0-7-0.8-10.3-2.8c0,1.3-1,2.3-2.3,2.3h-6C-2,1.6-3,0.6-3-0.7V-36c0-1.3,1-2.3,2.3-2.3h6.3c1.3,0,2.3,1,2.3,2.3v26.8
			c3,1.5,5,2.3,7,2.3c4.5,0,5-1,5-6.8V-36c0-1.3,1-2.3,2.3-2.3L28.1-38.2L28.1-38.2z M202,17.3c-1.3-0.3-5-1-6.3-1
			c-1.3-0.3-1.8-1.3-1.8-2.3V2c-2,0.3-4,0.3-5.8,0.3c-11,0-17-6.3-17-17.8v-5.3c0-11.5,6-17.8,17-17.8c4.3,0,9.5,0.8,13.8,1.8
			c1.5,0.5,2.5,1,2.5,2.5V15C204.5,16.3,203.2,17.6,202,17.3 M193.7-29.5c-1.5-0.3-3.8-0.3-5.8-0.3c-4.5,0-6.5,2.5-6.5,9v5.3
			c0,6.3,1.8,9,6.5,9c1.3,0,3.8-0.3,5.8-0.3V-29.5z M-24.1,2.3c-10.3,0-17-6.8-17-17.8V-21c0-11,6.5-17.8,17-17.8s17,6.8,17,17.8
			v5.5C-7.1-4.4-13.9,2.3-24.1,2.3 M-17.9-21c0-5.3-2.3-8.5-6.5-8.5c-4,0-6.5,3-6.5,8.5v5.5c0,5.3,2.3,8.3,6.5,8.3
			c4,0,6.5-3,6.5-8.3V-21z M150,2.3c-10.5,0-17-6.8-17-18v-5c0-13.3,9.3-17.8,17.3-17.8c4.5,0,10.8,1.5,13.8,2.5
			c1.3,0.5,1.8,1.8,1.5,2.5c-0.3,0.8-1,3.3-1,4c-0.3,0.8-1,1.5-2.3,1.5s-6-1.5-11.3-1.3c-6,0-7.3,4.3-7.3,7.3H165
			c1.3,0,2.3,1,2.3,2.3v4.3C167-4.7,160.5,2.3,150,2.3 M143.5-14.2c0.3,4.3,2.5,7,6.5,7c3.8,0,6.3-2.8,6.3-7H143.5L143.5-14.2z"/>
	</g>
</g>
</svg>
