<?xml version="1.0" encoding="utf-8"?>
<!-- Generator: Adobe Illustrator 23.0.1, SVG Export Plug-In . SVG Version: 6.00 Build 0)  -->
<svg version="1.1" id="Layer_1" xmlns="http://www.w3.org/2000/svg" xmlns:xlink="http://www.w3.org/1999/xlink" x="0px" y="0px"
	 viewBox="0 0 111 70" style="enable-background:new 0 0 111 70;" xml:space="preserve">
<style type="text/css">
	.st0{fill-rule:evenodd;clip-rule:evenodd;}
</style>
<g>
	<polygon class="st0" points="27,70 38,70 38,0 27,0 	"/>
	<polygon class="st0" points="14,70 19,70 19,0 14,0 	"/>
	<polygon class="st0" points="0,70 3,70 3,0 0,0 	"/>
	<g>
		<path d="M52.7,53.7c-0.1,0.1-0.2,0.3-0.2,0.4c0,0.2,0.1,0.3,0.2,0.4c0.1,0.1,0.3,0.2,0.4,0.2c0.3,0,0.6-0.1,0.9-0.4l-0.8-0.9
			C53,53.4,52.8,53.6,52.7,53.7z"/>
		<path d="M61,51.2h-0.6v1.3h0.7c0.2,0,0.4-0.1,0.6-0.2c0.1-0.1,0.2-0.3,0.2-0.5C61.9,51.4,61.6,51.2,61,51.2z"/>
		<path d="M71.3,51.2h-0.6v1.3h0.6c0.2,0,0.4-0.1,0.6-0.2c0.1-0.1,0.2-0.3,0.2-0.5c0-0.2-0.1-0.4-0.2-0.5
			C71.8,51.2,71.6,51.2,71.3,51.2z"/>
		<polygon points="65.2,53.4 66.8,53.4 65.9,51.5 		"/>
		<path d="M67.2,20.5c1,0,1.8-0.3,2.5-1c0.7-0.6,1-1.5,1-2.4c0-0.9-0.3-1.7-1-2.4s-1.5-1-2.4-1c-1,0-1.9,0.3-2.5,1
			c-0.7,0.6-1,1.5-1,2.4c0,1,0.3,1.8,1,2.4C65.4,20.2,66.2,20.5,67.2,20.5z"/>
		<path d="M93.5,51.2h-0.6v1.3h0.6c0.2,0,0.4-0.1,0.6-0.2c0.1-0.1,0.2-0.3,0.2-0.5c0-0.2-0.1-0.4-0.2-0.5
			C93.9,51.2,93.8,51.2,93.5,51.2z"/>
		<path d="M41,0v70h70V0H41z M99.5,32.3v1.5c-0.6-0.6-1.3-0.9-2.1-0.9c-0.4,0-0.8,0.1-1,0.3c-0.3,0.2-0.4,0.4-0.4,0.7
			c0,0.3,0.1,0.5,0.3,0.7c0.2,0.2,0.6,0.5,1,0.8l1,0.6c1.1,0.7,1.6,1.5,1.6,2.5c0,0.7-0.2,1.3-0.7,1.8c-0.5,0.4-1.1,0.7-1.9,0.7
			c-0.9,0-1.7-0.3-2.4-0.8v-1.6c0.7,0.9,1.5,1.3,2.4,1.3c0.4,0,0.7-0.1,1-0.3c0.3-0.2,0.4-0.5,0.4-0.8c0-0.5-0.4-1.1-1.2-1.5l-1-0.6
			c-0.6-0.4-1-0.7-1.3-1.1c-0.3-0.4-0.4-0.8-0.4-1.3c0-0.7,0.2-1.3,0.7-1.7c0.5-0.4,1.1-0.7,1.9-0.7C98.2,31.6,98.9,31.8,99.5,32.3z
			 M88,12.6h1l6.3,6.9v-6.9h1.2v8.9h-1.1l-6.2-6.9v6.9H88V12.6z M75.7,12.6H77v3.9h5.2v-3.9h1.3v8.9h-1.3v-3.9H77v3.9h-1.3V12.6z
			 M63.8,13.8c0.9-0.9,2-1.3,3.4-1.3c1.4,0,2.5,0.4,3.4,1.3s1.4,2,1.4,3.3c0,1.3-0.5,2.4-1.4,3.3c-0.9,0.9-2.1,1.3-3.5,1.3
			c-1.3,0-2.5-0.4-3.4-1.3c-0.9-0.9-1.3-1.9-1.3-3.2C62.4,15.8,62.9,14.7,63.8,13.8z M62,31.7h5.7v1.2h-4.4v2.7h4.2v1.2h-4.2v2.8
			h4.5v1.2H62V31.7z M55,55.3l-0.4-0.5c-0.2,0.2-0.5,0.3-0.7,0.4c-0.2,0.1-0.5,0.1-0.8,0.1c-0.4,0-0.7-0.1-1-0.4
			c-0.3-0.2-0.4-0.5-0.4-0.9c0-0.3,0.1-0.5,0.3-0.8c0.2-0.2,0.5-0.4,0.8-0.6c-0.2-0.2-0.3-0.4-0.4-0.6c-0.1-0.2-0.1-0.3-0.1-0.5
			c0-0.4,0.1-0.6,0.4-0.9c0.3-0.2,0.6-0.3,1-0.3c0.4,0,0.7,0.1,0.9,0.3c0.2,0.2,0.4,0.5,0.4,0.8c0,0.2-0.1,0.5-0.2,0.7
			c-0.1,0.2-0.4,0.4-0.7,0.6l0.7,0.8c0.2-0.2,0.4-0.5,0.5-0.8h0.9c-0.2,0.6-0.5,1-0.9,1.4l1,1.1H55z M57.7,40.7h-5.5v-8.9h1.3v7.8
			h4.2V40.7z M58.7,20.3c0,0.9,0,1.8-0.7,2.5c-0.3,0.3-0.7,0.5-1.1,0.6c0,0-1.2-1.2-1.2-1.2c0.3,0,0.7,0,1-0.1
			c0.2-0.1,0.4-0.2,0.5-0.5c0.1-0.2,0.2-0.7,0.2-1.5v-7.5h1.3V20.3z M62.4,52.9c-0.3,0.3-0.7,0.4-1.1,0.4h-0.9v2h-0.9v-4.8h1.9
			c0.5,0,0.8,0.1,1.1,0.4c0.3,0.3,0.4,0.6,0.4,1C62.8,52.3,62.7,52.6,62.4,52.9z M67.6,55.3l-0.5-1.2h-2.2l-0.5,1.2h-1l2-4.8h1
			l2.1,4.8H67.6z M72.7,55.3c-0.1-0.1-0.2-0.3-0.3-0.5c-0.3-0.5-0.5-0.9-0.6-1c-0.1-0.2-0.2-0.3-0.4-0.4c-0.1-0.1-0.2-0.1-0.4-0.1
			h-0.3v2h-0.9v-4.8h1.7c0.5,0,0.8,0.1,1.1,0.4c0.3,0.3,0.4,0.6,0.4,1c0,0.3-0.1,0.5-0.2,0.7c-0.1,0.2-0.4,0.4-0.6,0.5
			c0.2,0.1,0.3,0.2,0.4,0.3s0.3,0.4,0.4,0.7c0.3,0.6,0.5,1,0.7,1.2H72.7z M78.9,51.2h-1.7v4.1h-0.9v-4.1h-1.7v-0.7h4.4V51.2z
			 M85,55.3h-0.8l-2.9-3.4v3.4h-0.9v-4.8h0.8l2.9,3.4v-3.4H85V55.3z M81.4,40.7h-0.2l-2.9-7.3l-3,7.3H75l-3.6-9h1.3l2.5,6.2l2.5-6.2
			h1.2l2.5,6.2l2.4-6.2h1.3L81.4,40.7z M90.2,55.3H87v-4.8h3.1v0.7h-2.2v1.3H90v0.7h-2.1v1.4h2.2V55.3z M90.2,40.7h-1.3v-8.9h1.3
			V40.7z M94.9,55.3c-0.1-0.1-0.2-0.3-0.3-0.5c-0.3-0.5-0.5-0.9-0.6-1s-0.2-0.3-0.4-0.4c-0.1-0.1-0.2-0.1-0.4-0.1h-0.3v2H92v-4.8
			h1.7c0.5,0,0.8,0.1,1.1,0.4c0.3,0.3,0.4,0.6,0.4,1c0,0.3-0.1,0.5-0.2,0.7c-0.1,0.2-0.4,0.4-0.6,0.5c0.2,0.1,0.3,0.2,0.4,0.3
			s0.3,0.4,0.4,0.7c0.3,0.6,0.5,1,0.7,1.2H94.9z M99.9,55c-0.3,0.3-0.7,0.4-1.2,0.4c-0.3,0-0.6,0-0.8-0.1c-0.2-0.1-0.5-0.2-0.8-0.4
			V54c0.5,0.4,1,0.6,1.5,0.6c0.2,0,0.4,0,0.6-0.1c0.1-0.1,0.2-0.2,0.2-0.4c0-0.2-0.1-0.4-0.4-0.5c-0.2-0.1-0.5-0.2-0.8-0.4
			c-0.4-0.2-0.7-0.4-0.9-0.6c-0.2-0.2-0.3-0.5-0.3-0.8c0-0.4,0.2-0.7,0.5-1c0.3-0.2,0.7-0.4,1.2-0.4c0.5,0,0.9,0.1,1.4,0.4v0.8
			c-0.5-0.3-0.9-0.5-1.3-0.5c-0.2,0-0.4,0-0.6,0.1c-0.1,0.1-0.2,0.2-0.2,0.4c0,0.2,0.1,0.4,0.4,0.5c0.1,0,0.3,0.2,0.8,0.4
			c0.4,0.2,0.7,0.4,0.9,0.6c0.2,0.2,0.3,0.5,0.3,0.8C100.3,54.4,100.2,54.7,99.9,55z"/>
		<path d="M53.5,52.3c0.2-0.1,0.3-0.2,0.4-0.3c0.1-0.1,0.2-0.2,0.2-0.4c0-0.1,0-0.2-0.1-0.3c-0.1-0.1-0.2-0.1-0.4-0.1
			c-0.1,0-0.2,0-0.3,0.1c-0.1,0.1-0.1,0.2-0.1,0.3c0,0.1,0,0.2,0.1,0.4S53.4,52.2,53.5,52.3z"/>
	</g>
</g>
</svg>
