<?xml version="1.0" encoding="utf-8"?>
<!-- Generator: Adobe Illustrator 23.0.1, SVG Export Plug-In . SVG Version: 6.00 Build 0)  -->
<svg version="1.1" id="Layer_1" xmlns="http://www.w3.org/2000/svg" xmlns:xlink="http://www.w3.org/1999/xlink" x="0px" y="0px"
	 viewBox="0 0 2500 540" style="enable-background:new 0 0 2500 540;" xml:space="preserve">
<style type="text/css">
	.st0{fill:none;}
</style>
<g>
	<path class="st0" d="M1411.3,287c0.2,2.7,0.6,5.3,0.7,8C1412.2,292.3,1412.3,289.6,1411.3,287z"/>
	<path class="st0" d="M213.8,539.2c0.8-0.4,1.7-0.7,2.6-0.9C215.5,538.4,214.6,538.7,213.8,539.2z"/>
	<path d="M2499.8,80.4c0-7.3-1.5-14.3-4-21c-9.5-25.1-28.5-39-53.9-45c0,0,0,0,0,0c0,0,0,0,0,0c-198,0-396,0-594,0.1
		c-4.5,0-9,0.1-13.6,0.2c0.1-0.1,0.1-0.1,0.2-0.2c-0.1,0-0.1,0-0.2,0.1l-42.1,110.1l-1.4-0.5v-109c-4.2-0.2-8.4-0.7-12.6-0.7
		c-262.8,0-525.6,0-788.5-0.1c-3.8,0-7.8,1.3-11.4-1.3c0,0,0.1,0,0.1,0c-19.8-3.7-39.1-9.4-59.2-11.5c-0.1,0-0.2,0-0.2-0.1
		c0.1,0.1,0.2,0.1,0.2,0.2c-3.3,0.4-6.6,0-9.7-1.2c0.1,0,0.2,0,0.2,0c-0.1,0-0.2-0.1-0.2-0.1c-4.8,0-9.6,0-14.4-0.1
		C852-0.7,811.5,8,774.5,30.8c0,0,0,0,0,0c0,0,0,0,0,0c-1.4,0.7-1.4-0.5-1.4-1.2c-1.2-15.1-1.2-15.1-16.8-15.1
		c-42.1,0-84.2-0.1-126.3-0.1c0,0,0.1-0.1,0.1-0.1c0,0-0.1,0-0.1,0c-1.8,0.3-3.5,0.6-5.3,0.8c-43.7,5.8-74.1,38.1-82,73.9
		c-0.1,0.3-0.2,0.5-0.3,0.8l-1.4,7c-2.5-1.6-1.3-4.1-2.1-5.8c0,0,0,0,0,0c-13-44.4-42.2-70.2-88.1-76.7c0,0,0,0,0,0c0,0,0,0,0,0
		c-96.4,0.1-192.8,0.2-289.2,0c-8.6,0-11.5,1.4-11.5,11c0.5,85.6,0.3,171.1,0.3,256.7c0,2.4,0.7,5.2-0.2,7.1c-1.5,3-2.4-0.1-3.4-1.1
		c0,0,0,0,0,0c-1.8-1.6-3.6-3.1-5.3-4.8c-8.9-9-9-9.2-18.1,0.4c-19.6,20.6-39,41.4-58.5,62.1C47.3,364.5,30,383.6,12,401.9
		c-15.2,15.4-15.7,15-3.3,33.5c14.6,21.8,31.7,41.6,52.1,58.1c18.4,14.9,38.9,26.6,61,34.5c17,6.1,34.8,10.7,53.2,10.9
		c12.9,0.1,25.9,0.2,38.8,0.3c0,0,0,0,0,0c0.8-0.5,1.7-0.8,2.6-0.9c2.7-0.7,5.5-0.6,8.3-0.6c0,0,0,0,0,0c0,0,0,0,0,0
		c3.5-0.7,7-1.5,10.5-2.1c40.9-6.9,73.4-26.9,96.2-61.8c4.6-7,8.9-14.3,14.1-22.7c6.9,15.8,17.7,26.8,29.5,36
		c36.7,28.4,78.5,45.2,124.8,50.6c2.7-0.2,5.3-0.1,7.7,0.7c0.6,0.1,1.2,0.3,1.8,0.6c22.8,1,46,1.6,68.3-2.3
		c39.1-6.9,76.7-19,109.5-42.6c3.6-2.6,7.5-3.2,11.7-0.9c45.7,24.9,94.6,39.7,146.4,44.6c0.1,0,0.2,0.1,0.3,0.1
		c2.2-0.2,4.3-0.1,6.4,0.3c1,0.1,1.9,0.3,2.8,0.8c3,0,6-0.1,9,0.1c19.8,1.2,40,1,59.3-2.3c38.4-6.5,75-19,106.9-42.5
		c3.1-2.3,3.7-2.3,6.5,1c19.7,23.7,43.7,38.8,76.1,38.6c68.4-0.5,136.7-0.3,205.1,0c6.7,0,8.6-1.6,8.5-8.4
		c-0.4-42.5-0.2-84.9-0.2-127.4c0-34.9-0.1-69.9,0.1-104.8c0-2.5-2.7-6.9,3-7.5h0c13.5-0.7,27-1,40.6-1c13.5,0,27.1,0.3,40.6,1
		c1-0.2,1.4,0.2,1.2,1.2c1,2.6,0.9,5.3,0.7,8c0.1,0.9,0.1,1.8,0.1,2.7c0,75.1,0,150.2,0.1,225.3c0,3.6,0.4,7.2,0.6,10.7
		c-0.2-0.2-0.4-0.4-0.5-0.6c0.1,0.3,0.1,0.5,0.2,0.8c250.6,0,501.2,0,751.8,0c2.7,0,5.4,0.3,8.1,0.4c0.1,0,0.3,0.1,0.4,0.1
		c-0.1-0.1-0.1-0.1-0.2-0.2l178.9-0.1c0,0-0.1,0.1-0.1,0.1c17.8-1.3,29.4-10.5,34.7-27.6c0.1-0.3,0.2-0.6,0.2-0.9
		c0.1-4.6,0.2-9.1,0.3-13.7c0.1-82.9,0.1-165.7,0.1-248.5c0-3.6-0.7-7.2,0.7-10.7v-0.2c-0.9-3.7-1.5-7.4,0.2-11
		c3.2-1.7,6.6-0.9,9.8-0.9c31.3-0.1,62.7-0.3,94,0.1c6.7,0.1,8.6-1.6,8.5-8.4C2499.6,168.4,2499.8,124.4,2499.8,80.4z M310.1,220.1
		c0,42.2,0,84.4,0,126.6c0,22.9-4,45-13.6,65.8c-19.2,41.9-53.9,61.6-98.1,66.5c-48.6,5.4-88.1-10.6-117.4-50.5
		c-3.7-5.1-4.4-8.3,0.7-13.4c16.7-16.5,33-33.5,48.7-51c5.4-6,7.2-4.2,10.9,0.8c6.3,8.5,13.5,16.2,22.4,22.1
		c15.5,10.2,33.8,4.4,40.7-12.9c4.6-11.4,4.9-23.5,4.9-35.5c0.1-85,0.2-170-0.2-254.9c0-8.6,2-11.1,10.8-10.9
		c27.4,0.6,54.8,0.4,82.3,0.1c6.4-0.1,8,1.9,8,8.1C310,127.3,310.1,173.7,310.1,220.1z M709.3,323.7c-0.1,19.6-1.9,39.1-7.4,58.1
		c-10.5,36.6-33.2,63.7-67.9,78.7c-60.8,26.4-123,27.1-184.5,3c-48.7-19-74.6-56.9-81.7-108.1c-2.4-17.6-3.3-35.3-3.3-53.1
		c-0.1-30.4-0.2-60.8-0.2-91.3c0-43.1,0.2-86.2-0.2-129.3c-0.1-7.1,1.8-9.1,9-9c28,0.4,56.1,0.4,84.1,0c7.1-0.1,8.3,2.2,8.3,8.7
		c-0.2,69.9-0.2,139.8-0.1,209.7c0,14.8,1.4,29.5,4.7,43.9c10.2,44.6,41.1,58.6,82.5,53.2c25.3-3.3,41.1-18.3,48.7-42.4
		c5.6-17.7,7-36,7-54.4c0.1-69.9,0.2-139.8-0.1-209.7c0-7,1.7-9.1,8.9-9c27.7,0.4,55.4,0.4,83.2,0c6.6-0.1,9.3,1,9.3,8.7
		C709.3,162.2,709.6,242.9,709.3,323.7z M1015.8,404.5c-17.1,38.9-49.7,58.2-88.5,69.3c-19.3,5.5-39.1,7.1-59.1,6.7
		c-46.6-1.7-89.1-15.9-128-41.4c-4.1-2.7-6.1-4.3-2.1-9.3c15.3-19.8,30.2-39.9,44.7-60.2c4-5.6,7.3-5.8,13.2-3.1
		c19.7,9,39.7,17.2,60.4,23.6c15.9,4.9,31.1,3,45.3-5.1c23.7-13.5,24.8-43.3,2.2-58.5c-14.4-9.8-31.2-13.9-47.7-18.6
		c-17-4.9-34-10.1-50.2-17.3c-30.7-13.7-49.7-36.3-54-70.1c-5.6-43.8,1.8-84.3,33.3-117.3c27.1-28.4,61.8-39.7,100.4-39.8
		c41.9-0.1,81.5,10.2,119.1,28.7c6.2,3,6.8,4.7,1.2,9.3c-20.6,16.6-41,33.6-61.1,50.8c-4.5,3.8-8.4,4.6-13.8,3
		c-14.5-4.3-29.2-7.7-44.3-3c-4.6,1.4-9.1,3.2-13.2,5.7c-20.3,12.4-20.8,35.2-1.2,48.6c10.3,7.1,22.1,10.8,33.9,14.4
		c21.5,6.6,43.4,12.3,63.7,22.6c38.6,19.5,58.6,50.3,58.2,94C1027.9,360.6,1025.1,383.1,1015.8,404.5z M1355.5,152.6
		c0.1,6.9-1.5,9.1-8.8,9c-31.6-0.4-63.3,0.1-94.9-0.4c-7.7-0.1-9.3,2.2-9.3,9.5c0.2,97.9,0.1,195.9,0.3,293.8
		c0,8-1.6,10.8-10.2,10.6c-27.4-0.6-54.8-0.6-82.3,0c-7.9,0.2-9.2-2.6-9.2-9.7c0.2-97.9,0-195.9,0.3-293.8c0-8.2-2-10.5-10.3-10.4
		c-31.6,0.5-63.3,0-94.9,0.4c-6.9,0.1-8.5-2-8.4-8.6c0.4-24.1,0.4-48.2,0-72.3c-0.1-6.5,1.9-8,8.1-8c51.9,0.3,103.8,0.2,155.6,0.2
		s103.7,0.1,155.5-0.2c6.8,0,8.6,1.7,8.5,8.5C1355.1,105,1355.1,128.8,1355.5,152.6z M1731.8,396.1c-0.5,23.5-0.5,47,0,70.5
		c0.1,6.7-1.6,8.6-8.5,8.6c-77.4-0.3-154.9-0.3-232.3,0c-7.5,0-9.5-1.6-9.4-9.2c0.2-64.2,0.1-128.4,0.1-192.6
		c0-63.9,0.1-127.8-0.2-191.6c0-6.9,1.5-9.1,8.8-9c77.4,0.3,154.9,0.3,232.3,0c7,0,9.2,1.6,9.1,8.9c-0.5,23.8-0.5,47.6,0,71.4
		c0.2,7.6-2.6,8.7-9.2,8.6c-43.7-0.3-87.4,0.1-131.1-0.3c-7.6-0.1-8.8,2.5-8.6,9.2c0.4,16.9,0.5,33.8,0,50.6c-0.2,6.8,1.4,9.1,8.7,9
		c35.6-0.4,71.1,0,106.7-0.4c7.2-0.1,9,1.9,8.9,9c-0.4,24.1-0.4,48.2,0,72.3c0.1,6.7-1.5,8.7-8.4,8.6c-35.6-0.4-71.1,0-106.7-0.3
		c-6.5-0.1-9.5,0.9-9.2,8.6c0.7,16.6,0.6,33.2,0,49.7c-0.3,7.5,2.4,8.8,9.1,8.7c43.4-0.3,86.8,0.1,130.2-0.3
		C1730.3,386,1732,388.4,1731.8,396.1z M2158.1,475.1c-32.2-0.3-64.5-0.3-96.7,0c-6,0.1-8.3-2.2-10.2-7.5
		c-6.5-18.4-13.6-36.6-20-55.1c-1.9-5.4-4.6-7.2-10.4-7.2c-42.2,0.3-84.4,0.3-126.6,0c-6.3,0-8.9,2.2-11,7.7
		c-7,18.5-14.8,36.8-21.8,55.4c-2,5.2-4.7,6.6-9.9,6.6c-31.6-0.2-63.3-0.3-94.9,0.1c-8.3,0.1-7.9-2.6-5.4-8.8
		c41.3-106.5,82.5-213,123.6-319.5c8.4-21.9,17.2-43.6,25.1-65.7c2.5-7,6.1-8.8,13.1-8.5c15.4,0.7,30.8,0.3,46.1,0.3
		c15.7,0,31.3,0.3,47-0.2c6.2-0.2,8.8,1.9,11,7.6c36.6,97.7,73.4,195.2,110.1,292.8c11.9,31.5,23.7,63,35.7,94.4
		C2165,472.9,2165.1,475.1,2158.1,475.1z M2431.2,161.7c-31.3-0.4-62.7,0.1-94-0.4c-7.6-0.1-9.3,2-9.3,9.4
		c0.3,98.2,0.1,196.5,0.4,294.7c0,8.1-2.1,9.9-9.9,9.7c-27.1-0.5-54.2-0.4-81.4,0c-7.6,0.1-10.2-1.4-10.2-9.8
		c0.2-97.9-0.1-195.9,0.1-293.8c0-8.2-1.9-10.5-10.3-10.3c-31.6,0.5-63.3,0.1-94.9,0.3c-6.1,0.1-8.4-1.3-8.3-7.9
		c0.4-24.1,0.5-48.2,0-72.3c-0.2-7.6,2.7-8.7,9.3-8.7c51.9,0.4,103.8,0.3,155.6,0.3c50.9,0,101.9,0.2,152.8-0.2
		c8.7-0.1,10.4,2.7,10.2,10.6c-0.5,22.9-0.6,45.8,0.1,68.7C2441.6,160.4,2438.8,161.8,2431.2,161.7z"/>
	<path d="M1790.8,15.1c-0.1-0.1-0.2-0.1-0.2-0.2c0.1,0.1,0.2,0.2,0.2,0.3V15.1z"/>
</g>
<path d="M2029.7,316.8c-14.3-0.7-27.2-0.8-40-2c-7.7-0.7-8.3,2.2-6.8,8.5c2.7,11.7,4.6,23.6,7.3,35.3c1.1,4.7,0,6.1-4.7,7.1
	c-19.3,4.1-19.2,4.3-23-15.3c-1.6-8.3-3.7-16.4-5-24.8c-0.8-5.3-2.6-5.6-7-3.4c-12.1,6-24.4,11.5-38,17.9
	c8.7-57,17.3-112.9,26.3-171.3C1969.8,219.2,1999.4,267.5,2029.7,316.8L2029.7,316.8z"/>
</svg>
